<mxfile cover="8520;/9j/4AAQSkZJRgABAQAAAQABAAD/4gHYSUNDX1BST0ZJTEUAAQEAAAHIAAAAAAQwAABtbnRyUkdCIFhZWiAH4AABAAEAAAAAAABhY3NwAAAAAAAAAAAAAAAAAAAAAAAAAAAAAAAAAAAAAQAA9tYAAQAAAADTLQAAAAAAAAAAAAAAAAAAAAAAAAAAAAAAAAAAAAAAAAAAAAAAAAAAAAAAAAAAAAAAAAAAAAlkZXNjAAAA8AAAACRyWFlaAAABFAAAABRnWFlaAAABKAAAABRiWFlaAAABPAAAABR3dHB0AAABUAAAABRyVFJDAAABZAAAAChnVFJDAAABZAAAAChiVFJDAAABZAAAAChjcHJ0AAABjAAAADxtbHVjAAAAAAAAAAEAAAAMZW5VUwAAAAgAAAAcAHMAUgBHAEJYWVogAAAAAAAAb6IAADj1AAADkFhZWiAAAAAAAABimQAAt4UAABjaWFlaIAAAAAAAACSgAAAPhAAAts9YWVogAAAAAAAA9tYAAQAAAADTLXBhcmEAAAAAAAQAAAACZmYAAPKnAAANWQAAE9AAAApbAAAAAAAAAABtbHVjAAAAAAAAAAEAAAAMZW5VUwAAACAAAAAcAEcAbwBvAGcAbABlACAASQBuAGMALgAgADIAMAAxADb/2wBDAAMCAgICAgMCAgIDAwMDBAYEBAQEBAgGBgUGCQgKCgkICQkKDA8MCgsOCwkJDRENDg8QEBEQCgwSExIQEw8QEBD/2wBDAQMDAwQDBAgEBAgQCwkLEBAQEBAQEBAQEBAQEBAQEBAQEBAQEBAQEBAQEBAQEBAQEBAQEBAQEBAQEBAQEBAQEBD/wAARCACEAKMDASIAAhEBAxEB/8QAHAABAAMBAQEBAQAAAAAAAAAAAAQFBgcDAgEI/8QASRAAAQMDAQQDDAcGBQIHAAAAAQIDBAAFEQYHEiExE0HSFBUWIlFUVVZhk5TTFzIzdZGSlTZXcYGysyMmQlJkNUMkc3Sio7Xx/8QAFAEBAAAAAAAAAAAAAAAAAAAAAP/EABQRAQAAAAAAAAAAAAAAAAAAAAD/2gAMAwEAAhEDEQA/AP7jGiLDdm9Hx0aQZml/TKpb6IzqYi3HgmPha1jG8SVkcc/XzXqrZXbBHfcGySUXmyQ2yL+jLnipIO9vAJG8VDjx8XOOIqxi3d6yp0TLZuNohlWlCjfuknoGlH/wpCQry8M48gNeNzni+qXIvWptnT7y0NoKU3h5KMJUVdSxnBx1cfZ1hXt7MILiyhex6Q2Qje46jQd48AQMK/jjOBwHLOB9O7L7chDhTsglqU2ypzA1CnClgcEDxs/zx+NQpEK3tsRown7OpKYYdcQpzUEjGSsqAyXc5JJPEEDlkCpdvtWmmUuGRd9nwUs7yS3f5J44JTnLnlPEZ4gny4oP1WzOzG1x7hG2SzH3HU77kdN9AU2ME8SVDJ4DgBnJ6sVb7PdDaebvt7hXXQcOJ0UWE4iNMWicUFSpGVBagcbwSnIGPq/zqLb50bTt3VN09ftn6XZMYNPyHbutKQEr8VCWwsjgnrwOPX1HT6Duz151dqSW9PtUwpi29Adtr/Ss4CpGBnJ8bjxFB6X6zaMs0yDb4mzK2XKTPDpbbYhRUEBsJKiS5uj/AFDrrK3jVGz6wzzbLrsgjsyUgEtiJAWQCM/6VHq4/wAK6DqK1XyTdrXd7H3CpyAiQhSZbi0pPSBAGN1Jz9U+TqrO6g0ttHv8puT39ZtvRoCOit9yfabXxzlQ6M5PVnyUFFD1JoKfPbtkfY7H7qeKQ005EgIKyU7wxvKGfFOalL0hE1RdZUC2aetmlZFvajOOsybHBlhxDi3OIKVEDIbI8oxnrq0sel9o1jfD4vbE/CVJKJ1yfdSd45zjoxxHV7DjyVoNPWm/MXu53u+mAlycxFYQiItagA0XSSd4Dn0o/CgzcbZOpuUkypGnXY4KFKSjTUZCjjG8kHjgK48eYyPJxmal07py2SbVBs+gNMSZNzkLYSJMRtpCd1pbhJUltR5NkYxzIrc1QantN5nyrRcLIqF09rlOP7spS0oWFMuN4ykE58fP8qDmd1kS7fOfgR9kezeUto7qMXeM2pwgeNhK2QoEEYOQKjt3cuXBuEnZVszKCGlOP9+YxQ2lR8Y/Y5O7x4AcermK1OodE62vbqHmIGiYyvHLpcg90F0q6yVtnB5/xyc1FsmzzW9tmvybnG0Tcm3kDLa7cG91YIwoKS3/ALQBjlwBoLew6fsUu+XGxX3Z5pSO9CiRZiFw46HkrS8t9ODvNIIILB8v1q0HgHof1MsX6cz2a8dP2i/s3+5X6/G3JVLhw4bTUNS1BIZXIUSSoDn0+OH+2tHQckv2otmlhu8q0PbMbe85Fe6ArbiQwFq3Eq4BRCuS09WM1Ck612aQ3C1L2TRmVJOD0kOCkA5xxJVgca3jVq1narnd37QLK7GuU3uxPdLrqVpPRNt4O6kj/t5/nVHqHR20XUE0TfCJNtAb6Ms2+6PtNq54UR0R48eYI9tBmUbQdlrjimkbKI5UjG8O4YYxkAjr6wofiK6Dp/TmgtQ2aLemNDWZluWjfShdvYKkjJGDhOOrqr1Yb2hR0BCIunDy3lF98qUQAMqO5xOAONWOk7TJsWnYNolrbW9GbKVqbJKSd4nhkA9fkoJNmhQ7dATCt8RmLHaddCGmWwhCR0ijwSOA4k0r3h/Yq/8ANd/rVSgzv0Y6ICUoFmXuoSEJHdb+EpHIDx+Ap9GOh/Qyvi3+3Ue2q1ffXrk/G1OxDZjXGREbaNvS4QlC8Dxt4dXsrITtqKLbuqma4uCELAKHE6SfWheSQMFOQRkHiOFBptQ7NNFN2WWG7OoLcb6FJ7re4KWQkf6/KqrAbMNDgACyqAH/AC3+3XItU7aZKmrS1ZdTTLk3IukZMzf0zJYMeMF7yngCg9JhSEgI4b2efCtEva3HQyJCtb3XoSUjpPA2TujezjJxw+qr8DQbz6MdD+hlfFv9uvpvZto1rPRWt1Gee7NfGf8A31V6dn6i1Qy8/a9aqCWFJQ4mRYCwsFSAseKtQVxSpJ5ciKoXtoq47LMh/XUttqQ30rS16WdCXEf7kknBHtHCg2v0eaS9HyPjpHbp9HmkvR8j46R26wiNqcVaUrRtFeUleN0jTLmFZ5Y48akNbQXngpTWuJikoR0ilDSzu6lG9u7xOcAZ4ZPDNBs/o80l6PkfHSO3T6PNJej5Hx0jt1mRfddBxTTrt8SQrAUNONqSodRBDvtHPB5+Q1GTq/VhWptcnULawguJQrSuFOAEZ3U9Jk43h1UF/Y9BaXkQnFvQ5K1Jlym8mfIzupfcSkfX6gAKsPo80l6PkfHSO3XOLNOv+h7VIYbuGsFsOSpE5bk2wKfUlTzhWUhanThIUvdSkHgB18TU47RrmI5leElwU3lPFOn0HKSAd77Xl4w4+w+Q0G5+jzSXo+R8dI7dPo80l6PkfHSO3VDZb3eb1FVLTr5iGlK9wJmWtppaxgHeA6UnHHr8hqw6S9fvPtPwLXzKCd9HmkvR8j46R26fR5pL0fI+OkduvCLE1RN3u49ocB/cxvdFbW17ueWcOcORr6kwNWQ0B2ZtAhMIJ3Qpy2NpBPkyXPYaD1+jzSXo+R8dI7dPo80l6PkfHSO3UHpL1+8+0/AtfMp0l6/efafgWvmUE76PNJej5Hx0jt0+jzSXo+R8dI7dQekvX7z7T8C18ypMaBqyYguw9oEJ9AO6VN2xtQB8mQ57RQaC3W6JaYbdvgtqQw1ncSpxSyMkk8VEk8SeZpVXou43G6WMv3V9t+UzPnw1uob6MLDEt1lKt3JxlLYzx50oPDRH2N5++5v9ysdbdQhrR1stNv1a9YpsdtaXlGzOSuZOMZTjIznmfb5K1ESza0tL09Nql2Qx5c1+WkSGnVLHSKzglKgPJUnc2jec6b9w/wBug5lc9qdyss+bDk6r1DNQENhh+JpHLe+rBwklXjHAwQRwJJ5crq3avuTqbfNTtHdkR1rbckNyNPLaWprA3gN1BAJ4nqxw/nqbnbdodyhORFTdOtqVhTbiWH95taTlKhlXMEA1822ZtGmtrQ69ptqSwdx9roX8oV5R4/FJ5g9Y/nQeui5se53fU9yhlxUeTPZU0tbSm98CKykkBQBxvJUOXVXLl7QtEs6PslmkONi5woTDfdBtbE5Iy2Mp8ZQ3cFXHJBykiusbm0bznTfuH+3Tc2jec6b9w/26DiCNW6XYjMPOXqI+ptlQb/yjCC0KKUhCt0ODBGckcOWOGMG5h7QNHSdKXPT8ecl+dJaJZld7GISFoCk4aAbUcngSOHHNdW3No3nOm/cP9um5tG85037h/t0GkpWb3No3nOm/cP8AbpubRvOdN+4f7dB57SUMr0sDJjl6Oi52tx9AaLmWkz2FOZSASQEhRIxyBrnGtrboWSl+7afcua5a1oKYUaMI7KQB1BTGOOBkZ48eWTnoXdW0UXLvcp3TgKmOmQroX+OFYUMb3VlP41J3No3nOm/cP9ug47DcsKmiJOkLokgrWEuyGySTvDGUscgFkjOfqozxzX1ZLZou+yJjl6Z1LYklSSkYbcSSB9VCUR8ADJ4jgeGc44dg3No3nOm/cP8AbpubRvOdN+4f7dBV6K7xuavvcjTkQNQe9VsaK0xFMJW6l2YVcClOVbqkZOOsVI2hd7kP6YkXiKH4DF5UuSFRy+lKTBlpSVJAPDfUgcuZFTNzaN5zpv3D/bpubRvOdN+4f7dBxN6Dpxx6Z0Fiv/RLkOhtRlpTlGClKkgx/EHXg5IwOdfbSbQwgMr0tc5KUrWttZkpSpOUJASohjxhkK4459XE12nc2jec6b9w/wBum5tG85037h/t0HGLa1p4XSPJlaav4ZD6FOJfktKQEgkfUQx4ycYJGQTnnkZrrez3vct/U8izxQxAfvKVxgmOWEqSIMRKilJA4b6VjlzBqZubRvOdN+4f7dNzaN5zpv3D/boGgP8AoUr77vP/ANjIpUzSdnmWOzdxXCQy9JclzJjqmUlKN5+S49hIJJwOkxx8lKC4pSlAqDcLaZK0y4j5jTGhuoeCcgp/2rT/AKk+zq5gg1OpQVQvEiJ4l4trzOP++wkvMn2+KN5P804HlNUVq2nW2+xW5tn0/e5jLyAtC2WWlZSRkcnOH862VZHQVqtk/QWn1TbfHfULexhTjYJHijkeYoJXhk96mak+Fb+ZTwye9TNSfCt/Mqo1Pbn49+tdstOpJljjvRJsl91DxWgdEWcZS4SlIAcVngKw90uW0pN1Qqy7SlSYFtkqU/uSLSe6WgCncVvpBRxIJycjA45NB0/wye9TNSfCt/Mp4ZPepmpPhW/mVhIWrdaru8a2XXUseC282FuPmVb1hryggDifZ11t9MTLsb/dbTcL530YjxIUlh7oW2/tS9nG4MEYbTQUt61nqAX+xSbRoG7vxEPPsXNx3cbcYZU0SkoTvELJcS2CCU8DnjV4jWq1gKRo/USgeREZs5/+SpD2htMP3bv4u3rE7eKulRJdQckkngFAccnqqK/sy0RJf7pesmXd4q3hJeHM5PJXLPHHKg9BrN48Ro3UfwrfzKeGT3qZqT4Vv5lfdj0Hp3TlyVc7Qw+ytTIYDZfWtCUjrAUSc8+JPWfLWhoM34ZPepmpPhW/mU8MnvUzUnwrfzK0lKDN+GT3qZqT4Vv5lG9bNd1xIkvTl7h92PpjtuSGEJRvkEgEhZ6gerqrSVm9Zfbad++2P7blBpKUpQKUpQKUpQKUpQKzezf9gdP/AHez/SK0lZvZv+wOn/u9n+kUEvUGk7RqZbDlzMtKo6HWkKjynGSUObu+klBGQdxPA+Ss6vYroFxK0OQZqkufXBnvEK58/G48z+NbulBgJew7QEwlT0W49JuqQF98XiU5GDjKiM/xFWNhsTGhXn3HlyZLEpDTKpz0lx1SEoKtxK0rJ3UjfVxTw48QK9ZFy1bP1HcrTZJdojMW9uOrMqI66tZcCjzS6kADd8lZ7UmqL1DE6wXjWenobqo60uFFolFSEqQMqSQ8RkBYP/4aDpXOlcp0hqW9sW2zaZj7Q7FdJTbLcJEiTaJPTSVobHjrIdCQpQG8eXOtUu46ztN6scS8TLLJi3Wa5DWI0N1pxBEV94KBU6oc2QMY66DWUpSgUpSgVm9Zfbad++2P7blaSs3rL7bTv32x/bcoNJSlKBSlKBSlKBSlKBWb2b/sDp/7vZ/pFaSs3s3/AGB0/wDd7P8ASKDSUpSgz07SL8i8SbzbtWXi1OzENIebioiLQrowQk/4zCyD4x5HFeTmkb062ptzaRqJSVDBCo1tII9o7krTUoMbaLLf50bdkbStQomMHo5TSWLcNxwc8Axc7p5g9YIqcxo6T30t9zuesr3c+9j65LDEluGhvpFMuNbx6JhCjhLq+G9jOPJWSn6XTq+z3u6X7Xeo7ShudPidNbHmWHGGG5C0JCFhouDgB1ms3O1RMQ73Hp3bI84hoJSk3Bol4pAAKlBEXnkK48vwOQ7rSuT6Zuq7hLRabvtVua7jKd3YzUFhO6UbufGLkYYJwT1DGOfM7DTQuULU96ssu+TbkxGiwn2lS+j30KcL4UAW0JGPETzHVQailKUCs3rL7bTv32x/bcrSVm9Zfbad++2P7blBpKUpQKUpQKUpQKUpQKy2zqXFa0JYEOSWkKFvYyFLAI8QVqaovAPQ/qZYv05ns0Ft3fB88Y94Kd3wfPGPeCqnwD0P6mWL9OZ7NPAPQ/qZYv05ns0Ft3fB88Y94Kd3wfPGPeCqnwD0P6mWL9OZ7NPAPQ/qZYv05ns0FVFtF+tipTdp1taGY0iZIlpQ7bS4tJddU4QVdOM4KsZwOXKs6dn+tHFl13bhJ3ipSsNxylIyrIwOn6uQrb+Aeh/UyxfpzPZqtTobRPhG634H2PdMJB3e97OM9Irj9WgqLBpLV9gcLg2upuGWUtbs+IXhwOd7HTjxj1nrrQ2G3v2+63C8XjUkCdInMx2P8CP3OlCWi4QcFxeSelPk5VI8A9D+pli/TmezTwD0P6mWL9OZ7NBbd3wfPGPeCnd8Hzxj3gqp8A9D+pli/TmezTwD0P6mWL9OZ7NBbd3wfPGPeCs9q6TGekadSzIbWoXpg4SsE46NypfgHof1MsX6cz2a9Ymj9IwJLcyDpa0R32jvNutQWkLQfKCE5FBcUpSgUpSgUpSgUpSgh3h1xi0zX2VlDjcZxaVDmCEkg1koNtl+DUTUF32i32M27DakvrKoqW0FSQTzY4DJ6zWrvv8A0S4/+ke/oNZi4RpMzZKxGiR3H3nLVFCG20FSlHdRyA4mgrDe9Ig4O2+bk/8ALhfJp370l+++d8XC+TVDrN3U+rJEhEjRynYrYUIKlw5zbyQc8FlHi8RgcjjjzqqiWGfGjlhzZ2FNtbymkNM3MHeJSN3JX9UpSAU5wSB7aDZ9+tJ/vunfFwvk18XhvVrPcb+l7nqe/wAOYlKkyWZsFpAySM+MxxGMHPI551WaPlX3S9weMfRTsWDKc3ng1DnuvFOeAHSKKRjKuXDkPbW/0FEkwNF2SFNjuMPsQWm3G3E7qkKCQCCDyNBzq63vWNgcbTf5l7t6XgSyqRfbYjpSMb2B0HVvDP8AH8c8m7WpWo1a0bvMw3hUQ2xMtV+tqXDECy4EkFjxQVcccTxHk4db1M+/btVWS7i1z5cdiHOZcMSOp4pUtUcpyByzuK/Col81RcLhGbZtEPUlscS6lTjneNbpWjrRgkYz5erA/hQc+i6/ub2O6tRz4/EA/wCY7WvHDieDHVyrX6Xjas1CliVIu2pIMJ9npkSe+EB5K8gFO5uMHeSoHIVnFX8fWYajtNv6f1I84hCUrc71LTvqA4qwOWeeKlaChyrdoXTlvnMLYkxbTDZeaWMKQtLKQpJ9oIIoM5Ol2C2S3IFx2yXONJZO6407IhpWk8+ILHkrw796SPAbb53D/lwvk1D1OLglrUVn8Dpt074XluSgLjv9zrZ6BlJVvtYVkFCuWf4GsqnTdwXvyXdBAPukhbQj3IsqBCQVHxgd7CcdQPOg23frSf77p3xcL5NWjlokvWN69WvaNfpLQjuPMuJVFUhe6CRyY4jIrG6abutn1LGukjQRZjtdKFuRIk/pAClQSUtrJbycjJPEAnBNbjT8aTD2aJjS47jDzdvfC23EFKknCuYPEUF7puS/M07a5klwuPPwmHHFnmpSkAk/iasaqdJfspZfu+N/bTVtQKUpQKUpQKUpQeMuMiZFeiOlQQ+2ptRTzAUMHH41AhWN23wo8CNe56WYzSGWwUsEhKQAOPR+QUpQe/e6X6dnfkY+XTvdL9OzvyMfLpSgd7pfp2d+Rj5dO90v07O/Ix8ulKB3ul+nZ35GPl073S/Ts78jHy6UoHe6X6dnfkY+XTvdL9OzvyMfLpSgd7pfp2d+Rj5dO90v07O/Ix8ulKB3ul+nZ35GPl15v2h+Sw5Gfvc5TbqChad1kZSRgjg3SlBKt0Fq2W+LbWFLU1EZQwgrIKilKQATjHHAqRSlApSlB//Z" host="kod.cuc.edu.cn" modified="2025-06-07T10:30:23.730Z" agent="Mozilla/5.0 (Windows NT 10.0; Win64; x64) AppleWebKit/537.36 (KHTML, like Gecko) Chrome/137.0.0.0 Safari/537.36 Edg/137.0.0.0" etag="LIJFfY6nJvbtX_7aPeEo" version="22.0.8">
  <diagram name="第 1 页" id="qF6PDZGXdEZEZJkkwJzO">
    <mxGraphModel dx="1673" dy="815" grid="1" gridSize="10" guides="1" tooltips="1" connect="1" arrows="1" fold="1" page="1" pageScale="1" pageWidth="827" pageHeight="1169" math="1" shadow="0">
      <root>
        <mxCell id="0" />
        <mxCell id="1" parent="0" />
        <mxCell id="HuENcrhHjkSQkY-57e4u-1" value="Application presentation layer" style="whiteSpace=wrap;strokeWidth=2;verticalAlign=top;" vertex="1" parent="1">
          <mxGeometry x="219" y="590" width="520" height="84" as="geometry" />
        </mxCell>
        <mxCell id="HuENcrhHjkSQkY-57e4u-2" value="Digital human interaction system" style="whiteSpace=wrap;strokeWidth=2;" vertex="1" parent="1">
          <mxGeometry x="254" y="615" width="128" height="34" as="geometry" />
        </mxCell>
        <mxCell id="HuENcrhHjkSQkY-57e4u-3" value="AR" style="whiteSpace=wrap;strokeWidth=2;" vertex="1" parent="1">
          <mxGeometry x="442" y="615" width="99" height="34" as="geometry" />
        </mxCell>
        <mxCell id="HuENcrhHjkSQkY-57e4u-4" value="Intelligent tour guide terminal" style="whiteSpace=wrap;strokeWidth=2;" vertex="1" parent="1">
          <mxGeometry x="590" y="615" width="113" height="34" as="geometry" />
        </mxCell>
        <mxCell id="HuENcrhHjkSQkY-57e4u-5" value="RAG Technology" style="whiteSpace=wrap;strokeWidth=2;verticalAlign=top;" vertex="1" parent="1">
          <mxGeometry x="222" y="288" width="506" height="252" as="geometry" />
        </mxCell>
        <mxCell id="HuENcrhHjkSQkY-57e4u-6" value="Knowledge retrieval engine" style="whiteSpace=wrap;strokeWidth=2;" vertex="1" parent="1">
          <mxGeometry x="282" y="313" width="113" height="34" as="geometry" />
        </mxCell>
        <mxCell id="HuENcrhHjkSQkY-57e4u-7" value="DeepSeek" style="whiteSpace=wrap;strokeWidth=2;" vertex="1" parent="1">
          <mxGeometry x="354" y="397" width="132" height="34" as="geometry" />
        </mxCell>
        <mxCell id="HuENcrhHjkSQkY-57e4u-8" value="Context enhancement generation" style="whiteSpace=wrap;strokeWidth=2;" vertex="1" parent="1">
          <mxGeometry x="427" y="470" width="128" height="45" as="geometry" />
        </mxCell>
        <mxCell id="HuENcrhHjkSQkY-57e4u-9" value="Processing and analysis layer" style="whiteSpace=wrap;strokeWidth=2;verticalAlign=top;" vertex="1" parent="1">
          <mxGeometry x="28" y="154" width="798" height="84" as="geometry" />
        </mxCell>
        <mxCell id="HuENcrhHjkSQkY-57e4u-10" value="Analysis of Cultural Brand Image" style="whiteSpace=wrap;strokeWidth=2;" vertex="1" parent="1">
          <mxGeometry x="451" y="179" width="145" height="34" as="geometry" />
        </mxCell>
        <mxCell id="HuENcrhHjkSQkY-57e4u-11" value="Modeling of tourists&#39; preferred behaviors" style="whiteSpace=wrap;strokeWidth=2;" vertex="1" parent="1">
          <mxGeometry x="646" y="179" width="145" height="34" as="geometry" />
        </mxCell>
        <mxCell id="HuENcrhHjkSQkY-57e4u-12" value="Identification of cultural and tourism hotspots" style="whiteSpace=wrap;strokeWidth=2;" vertex="1" parent="1">
          <mxGeometry x="222" y="170" width="112" height="45" as="geometry" />
        </mxCell>
        <mxCell id="HuENcrhHjkSQkY-57e4u-13" value="Construction of the cultural ontology library" style="whiteSpace=wrap;strokeWidth=2;" vertex="1" parent="1">
          <mxGeometry x="63" y="170" width="129" height="43" as="geometry" />
        </mxCell>
        <mxCell id="HuENcrhHjkSQkY-57e4u-14" value="Data layer" style="whiteSpace=wrap;strokeWidth=2;verticalAlign=top;" vertex="1" parent="1">
          <mxGeometry x="20" y="20" width="810" height="84" as="geometry" />
        </mxCell>
        <mxCell id="HuENcrhHjkSQkY-57e4u-15" value="user consumption habit" style="whiteSpace=wrap;strokeWidth=2;" vertex="1" parent="1">
          <mxGeometry x="670" y="45" width="113" height="34" as="geometry" />
        </mxCell>
        <mxCell id="HuENcrhHjkSQkY-57e4u-16" value="visitor flow statistics" style="whiteSpace=wrap;strokeWidth=2;" vertex="1" parent="1">
          <mxGeometry x="283" y="45" width="112" height="34" as="geometry" />
        </mxCell>
        <mxCell id="HuENcrhHjkSQkY-57e4u-17" value="scenic spot consumption records" style="whiteSpace=wrap;strokeWidth=2;" vertex="1" parent="1">
          <mxGeometry x="485" y="40" width="111" height="39" as="geometry" />
        </mxCell>
        <mxCell id="HuENcrhHjkSQkY-57e4u-18" value="Local Cultural Knowledge Graph (Local Chronicles/Folk Customs/Biographies of Figures)" style="whiteSpace=wrap;strokeWidth=2;" vertex="1" parent="1">
          <mxGeometry x="40" y="27" width="195" height="70" as="geometry" />
        </mxCell>
        <mxCell id="HuENcrhHjkSQkY-57e4u-28" value="" style="curved=1;startArrow=none;endArrow=block;exitX=0.5;exitY=1;entryX=0.5;entryY=0;rounded=0;" edge="1" parent="1" source="HuENcrhHjkSQkY-57e4u-18" target="HuENcrhHjkSQkY-57e4u-13">
          <mxGeometry relative="1" as="geometry">
            <Array as="points" />
          </mxGeometry>
        </mxCell>
        <mxCell id="HuENcrhHjkSQkY-57e4u-29" value="" style="curved=1;startArrow=none;endArrow=block;exitX=0.5;exitY=1;entryX=0.451;entryY=0;rounded=0;entryDx=0;entryDy=0;entryPerimeter=0;exitDx=0;exitDy=0;" edge="1" parent="1" source="HuENcrhHjkSQkY-57e4u-13" target="HuENcrhHjkSQkY-57e4u-6">
          <mxGeometry relative="1" as="geometry">
            <Array as="points">
              <mxPoint x="140" y="250" />
              <mxPoint x="210" y="300" />
            </Array>
          </mxGeometry>
        </mxCell>
        <mxCell id="HuENcrhHjkSQkY-57e4u-33" value="" style="curved=1;startArrow=none;endArrow=block;exitX=0.7939152707543192;exitY=1;entryX=0.5025449810606061;entryY=0;rounded=0;" edge="1" parent="1" source="HuENcrhHjkSQkY-57e4u-6" target="HuENcrhHjkSQkY-57e4u-7">
          <mxGeometry relative="1" as="geometry">
            <Array as="points">
              <mxPoint x="420" y="372" />
            </Array>
          </mxGeometry>
        </mxCell>
        <mxCell id="HuENcrhHjkSQkY-57e4u-34" value="" style="curved=1;startArrow=none;endArrow=block;exitX=0.5025449810606061;exitY=1;entryX=0.2762552897135415;entryY=0;rounded=0;" edge="1" parent="1" source="HuENcrhHjkSQkY-57e4u-7" target="HuENcrhHjkSQkY-57e4u-8">
          <mxGeometry relative="1" as="geometry">
            <Array as="points">
              <mxPoint x="420" y="456" />
            </Array>
          </mxGeometry>
        </mxCell>
        <mxCell id="HuENcrhHjkSQkY-57e4u-38" value="" style="curved=1;startArrow=none;endArrow=block;rounded=0;" edge="1" parent="1" source="HuENcrhHjkSQkY-57e4u-14" target="HuENcrhHjkSQkY-57e4u-9">
          <mxGeometry relative="1" as="geometry">
            <Array as="points" />
          </mxGeometry>
        </mxCell>
        <mxCell id="HuENcrhHjkSQkY-57e4u-39" value="" style="curved=1;startArrow=none;endArrow=block;rounded=0;" edge="1" parent="1" source="HuENcrhHjkSQkY-57e4u-9" target="HuENcrhHjkSQkY-57e4u-5">
          <mxGeometry relative="1" as="geometry">
            <Array as="points" />
          </mxGeometry>
        </mxCell>
        <mxCell id="HuENcrhHjkSQkY-57e4u-40" value="" style="curved=1;startArrow=none;endArrow=block;rounded=0;" edge="1" parent="1" source="HuENcrhHjkSQkY-57e4u-5" target="HuENcrhHjkSQkY-57e4u-1">
          <mxGeometry relative="1" as="geometry">
            <Array as="points" />
          </mxGeometry>
        </mxCell>
      </root>
    </mxGraphModel>
  </diagram>
</mxfile>
